<svg width="91" height="93" viewBox="0 0 91 93" fill="none" xmlns="http://www.w3.org/2000/svg">
<path id="Star 1" d="M48.9568 29.251L49.1356 30.5713L49.8696 29.4593L64.0591 7.96172L56.0985 32.459L55.6868 33.7262L56.8305 33.0428L78.9423 19.8307L61.1411 38.4481L60.2203 39.4111L61.5473 39.2916L87.2018 36.9818L63.0857 46.0319L61.8383 46.5L63.0857 46.9681L87.2018 56.0182L61.5473 53.7084L60.2203 53.5889L61.1411 54.5519L78.9423 73.1693L56.8305 59.9572L55.6868 59.2738L56.0985 60.541L64.0591 85.0383L49.8696 63.5407L49.1356 62.4287L48.9568 63.749L45.5 89.2743L42.0432 63.749L41.8644 62.4287L41.1304 63.5407L26.9409 85.0383L34.9015 60.541L35.3132 59.2738L34.1695 59.9572L12.0577 73.1693L29.8589 54.5519L30.7797 53.5889L29.4527 53.7084L3.79817 56.0182L27.9143 46.9681L29.1617 46.5L27.9143 46.0319L3.79817 36.9818L29.4527 39.2916L30.7797 39.4111L29.8589 38.4481L12.0577 19.8307L34.1695 33.0428L35.3132 33.7262L34.9015 32.459L26.9409 7.96171L41.1304 29.4593L41.8644 30.5713L42.0432 29.251L45.5 3.72572L48.9568 29.251Z" stroke="#1FAF47"/>
</svg>
